<?xml version="1.0" standalone="no"?>
<!DOCTYPE svg PUBLIC "-//W3C//DTD SVG 20010904//EN"
 "http://www.w3.org/TR/2001/REC-SVG-20010904/DTD/svg10.dtd">
<svg version="1.0" xmlns="http://www.w3.org/2000/svg"
 width="1920.000000pt" height="1440.000000pt" viewBox="0 0 1920.000000 1440.000000"
 preserveAspectRatio="xMidYMid meet">
<metadata>
Created by potrace 1.16, written by Peter Selinger 2001-2019
</metadata>
<g transform="translate(0.000000,1440.000000) scale(0.100000,-0.100000)"
fill="#000000" stroke="none">
<path d="M3400 11548 c-88 -12 -164 -51 -231 -117 -67 -68 -105 -143 -119
-236 -14 -99 -14 -8437 1 -8525 5 -36 21 -89 34 -117 l24 -53 2539 0 2539 0 7
-38 c3 -20 15 -48 27 -62 l21 -25 -6 25 c-3 14 -9 42 -12 62 l-7 38 1383 0
1383 0 -7 -39 c-3 -22 -9 -46 -12 -55 -3 -9 -1 -16 5 -16 14 0 41 60 41 90 l0
20 2539 0 2540 0 25 52 c14 29 30 82 36 118 14 88 14 8427 0 8523 -14 93 -53
171 -119 238 -70 69 -143 105 -244 118 -100 14 -12291 13 -12387 -1z m8504
-1048 c124 -18 203 -69 258 -167 29 -52 31 -53 76 -53 26 0 52 -4 58 -8 6 -4
14 -43 17 -88 8 -104 -3 -124 -71 -124 -46 0 -48 -1 -72 -47 -38 -73 -107
-137 -173 -162 -54 -19 -76 -21 -316 -21 l-258 0 -61 31 c-68 34 -145 112
-163 166 -10 30 -14 33 -53 33 -23 0 -52 7 -64 16 -20 14 -22 24 -22 98 0 50
5 87 12 94 7 7 35 12 63 12 49 0 50 1 74 45 52 98 147 163 255 175 95 11 363
11 440 0z m1829 -40 c33 -26 44 -85 24 -133 -19 -45 -42 -57 -111 -57 l-56 0
0 105 0 105 59 0 c43 0 65 -5 84 -20z m639 -7 c3 -26 6 -28 39 -25 29 3 40 -1
53 -20 22 -31 20 -80 -4 -111 -17 -22 -28 -25 -75 -25 l-55 1 0 103 c0 96 1
104 19 104 14 0 21 -8 23 -27z m680 -40 c26 -23 25 -96 -2 -123 -43 -43 -116
-14 -126 50 -8 50 24 90 73 90 20 0 45 -7 55 -17z m188 -3 c6 -12 10 -46 8
-78 -3 -49 -6 -57 -23 -57 -17 0 -20 8 -23 55 -4 62 -14 79 -37 60 -10 -8 -15
-30 -15 -66 0 -47 -2 -54 -20 -54 -18 0 -20 7 -20 79 l0 79 60 1 c50 0 61 -3
70 -19z m252 3 c12 -11 18 -31 18 -60 0 -55 -29 -88 -70 -79 -26 5 -29 3 -32
-27 -2 -21 -9 -33 -20 -35 -16 -3 -18 7 -18 106 l0 110 52 0 c35 1 59 -5 70
-15z m177 -9 c28 -36 27 -79 -4 -109 -57 -58 -144 -5 -128 78 11 59 95 78 132
31z m-11862 1 c28 -19 34 -48 17 -81 -13 -25 -13 -29 6 -49 26 -28 25 -51 -5
-80 -21 -22 -33 -25 -100 -25 l-75 0 0 125 0 125 68 0 c43 0 75 -5 89 -15z
m1453 -110 c0 -118 -1 -125 -20 -125 -11 0 -20 4 -20 10 0 6 -10 6 -27 -1 -39
-14 -70 -3 -88 31 -22 43 -19 83 11 115 25 27 42 29 87 10 15 -6 17 -1 17 39
0 39 3 46 20 46 19 0 20 -7 20 -125z m814 93 c17 -21 17 -23 1 -26 -9 -2 -22
1 -28 7 -17 17 -84 14 -91 -5 -4 -11 10 -23 59 -45 74 -33 92 -58 76 -102 -13
-34 -53 -50 -106 -43 -37 4 -75 34 -75 57 0 14 30 10 46 -6 9 -8 28 -15 44
-15 76 0 83 38 12 63 -27 10 -58 25 -70 33 -36 25 -25 91 18 108 31 12 95 -2
114 -26z m428 -20 l3 -53 55 0 55 0 3 53 c2 37 7 52 18 52 11 0 14 -23 14
-125 0 -104 -2 -125 -15 -125 -11 0 -15 12 -15 50 0 44 -3 50 -24 56 -13 3
-38 4 -57 2 -33 -3 -34 -4 -37 -55 -3 -45 -6 -53 -23 -53 -18 0 -19 8 -19 125
0 117 1 125 19 125 17 0 20 -8 23 -52z m458 7 c0 -33 4 -45 14 -45 8 0 18 5
21 10 10 16 40 11 69 -11 36 -29 37 -99 1 -134 -27 -28 -46 -31 -78 -14 -16 9
-22 9 -25 0 -2 -6 -10 -11 -18 -11 -11 0 -14 24 -14 125 0 104 2 125 15 125
11 0 15 -12 15 -45z m-2845 -50 c14 -13 25 -36 25 -50 0 -24 -2 -25 -60 -25
-64 0 -66 -1 -49 -31 7 -15 20 -20 42 -19 57 3 64 1 43 -15 -24 -18 -59 -19
-89 -4 -31 17 -37 28 -37 77 0 51 34 92 75 92 14 0 37 -11 50 -25z m588 16
c21 -8 47 -54 47 -82 0 -5 -29 -9 -65 -9 -36 0 -65 -3 -65 -6 0 -3 5 -14 10
-25 9 -15 20 -19 55 -17 54 2 68 -8 31 -22 -71 -26 -126 9 -126 80 0 69 50
105 113 81z m129 -1 c2 -7 14 -6 35 2 26 10 35 9 57 -5 24 -16 26 -23 26 -92
0 -68 -2 -75 -20 -75 -17 0 -19 8 -22 73 -3 67 -5 72 -26 75 -40 6 -52 -14
-52 -84 0 -57 -2 -64 -20 -64 -19 0 -20 7 -20 90 0 82 2 90 19 90 11 0 21 -5
23 -10z m601 -1 c14 -6 30 -22 36 -36 50 -110 -96 -187 -154 -81 -19 35 -19
38 -2 73 24 50 70 67 120 44z m315 -4 c4 -4 9 -42 12 -86 4 -69 3 -79 -12 -79
-9 0 -18 5 -20 11 -2 7 -12 7 -31 -2 -36 -16 -77 1 -77 33 0 35 12 47 55 56
30 6 41 13 43 30 3 18 -1 22 -26 22 -17 0 -32 -4 -34 -10 -2 -6 -8 -6 -18 1
-13 8 -12 12 5 25 20 15 88 15 103 -1z m545 -16 c21 -26 22 -87 2 -116 -31
-44 -131 -35 -149 12 -26 70 25 142 93 131 20 -3 44 -15 54 -27z m-2320 -439
c3 -11 10 -20 15 -20 5 0 12 9 15 20 7 27 35 25 39 -2 2 -13 8 -23 13 -23 6 0
11 10 13 23 3 22 32 32 32 10 0 -9 3 -9 12 0 7 7 24 12 38 12 38 0 50 -18 50
-71 l0 -48 -41 2 c-45 2 -67 22 -56 51 4 9 15 16 26 16 20 0 37 17 27 27 -3 3
-12 1 -19 -6 -8 -6 -21 -9 -29 -6 -10 4 -17 -8 -26 -40 -9 -35 -16 -46 -30
-43 -9 2 -18 13 -20 26 -2 12 -7 22 -12 22 -5 0 -10 -10 -12 -22 -2 -13 -11
-24 -20 -26 -13 -2 -21 10 -32 49 -19 64 -20 69 -2 69 7 0 16 -9 19 -20z
m7964 -143 c45 -24 108 -112 133 -186 69 -206 -38 -433 -243 -514 -68 -27
-190 -27 -273 -1 -64 20 -162 94 -201 153 -70 104 -89 259 -44 374 12 31 28
63 35 70 6 6 22 27 35 46 45 63 134 81 386 77 109 -2 147 -6 172 -19z m2919
-1278 l70 -29 -23 -103 c-33 -143 -40 -298 -19 -412 35 -187 123 -354 255
-486 177 -178 399 -271 649 -272 l102 0 0 -194 0 -193 -121 0 c-238 0 -495 79
-696 213 -314 210 -514 527 -573 907 -30 193 2 476 71 637 l18 42 98 -40 c54
-23 130 -54 169 -70z m324 -203 c0 -75 13 -106 44 -106 27 0 36 26 36 102 0
71 2 78 20 78 19 0 20 -7 20 -89 0 -82 -2 -91 -22 -105 -32 -23 -94 -20 -118
4 -17 17 -20 33 -20 105 0 78 2 85 20 85 18 0 20 -7 20 -74z m298 47 l27 -28
-25 -3 c-13 -2 -26 1 -28 7 -5 15 -62 14 -62 -1 0 -7 21 -21 46 -32 25 -10 52
-29 61 -43 15 -22 15 -26 -4 -51 -37 -50 -153 -36 -153 18 0 27 27 26 49 -2
14 -16 24 -19 45 -14 39 10 30 36 -18 53 -77 26 -96 66 -50 102 37 29 79 27
112 -6z m205 7 c32 -26 44 -79 28 -131 -15 -49 -34 -59 -110 -59 l-61 0 0 98
c0 54 3 102 7 105 3 4 30 7 58 7 38 0 60 -6 78 -20z m-11871 -472 c2 -18 11
-24 36 -26 43 -4 41 -22 -3 -22 -34 0 -35 -1 -35 -40 0 -35 3 -40 23 -40 73
-1 86 -99 15 -118 -23 -6 -34 -15 -36 -30 -4 -27 -22 -29 -22 -3 0 22 -19 31
-61 31 -18 0 -28 4 -24 10 3 6 24 10 46 10 l40 0 -3 37 c-3 32 -7 38 -36 45
-20 6 -37 18 -44 33 -16 36 3 72 44 83 23 6 34 15 36 30 4 29 20 28 24 0z
m-232 -1081 c0 -99 7 -117 46 -117 43 0 54 24 54 121 0 88 0 89 25 89 l25 0 0
-100 c0 -94 -2 -103 -25 -125 -20 -20 -34 -25 -77 -25 -64 1 -87 16 -99 67
-10 45 -12 167 -2 176 3 4 17 7 30 7 22 0 23 -2 23 -93z m343 82 c25 -14 37
-28 37 -46 0 -16 -42 -17 -57 -2 -13 13 -65 8 -70 -6 -2 -6 24 -21 58 -34 63
-26 79 -43 79 -85 0 -44 -32 -66 -95 -66 -46 0 -60 4 -80 25 -14 13 -25 29
-25 35 0 15 35 12 67 -7 19 -11 38 -14 57 -9 44 11 29 38 -33 58 -59 19 -80
40 -81 80 0 53 85 87 143 57z m267 -17 c51 -51 52 -153 3 -198 -23 -21 -35
-24 -104 -24 l-79 0 0 125 0 125 76 0 c70 0 78 -2 104 -28z m290 -97 l0 -125
-25 0 c-25 0 -25 1 -25 85 0 67 -3 85 -14 85 -8 0 -18 -4 -21 -10 -10 -16 -25
-12 -25 6 0 21 69 83 93 84 15 0 17 -12 17 -125z m305 100 c39 -38 32 -69 -26
-131 l-52 -54 52 0 c44 0 51 -3 51 -20 0 -18 -7 -20 -85 -20 -47 0 -85 3 -85
6 0 16 28 55 72 100 32 33 49 58 46 70 -4 24 -41 30 -58 9 -18 -22 -50 -19
-50 5 0 57 90 81 135 35z m187 8 c24 -29 27 -49 12 -78 -13 -25 -13 -30 1 -45
23 -25 19 -76 -7 -94 -32 -23 -94 -20 -118 4 -24 24 -26 67 -4 91 15 16 15 20
0 41 -21 29 -20 40 5 72 25 32 87 37 111 9z m173 11 c27 -11 45 -60 45 -127 0
-83 -23 -117 -79 -117 -50 0 -73 26 -79 89 -11 119 36 184 113 155z m3742 -16
c42 -39 28 -85 -46 -154 l-36 -33 53 -1 c45 0 52 -3 52 -20 0 -18 -7 -20 -84
-20 -82 0 -84 1 -78 22 3 12 30 46 59 76 38 38 53 60 51 75 -4 27 -45 36 -54
13 -9 -23 -54 -21 -54 2 0 56 91 83 137 40z m183 2 c23 -23 26 -58 6 -85 -12
-17 -12 -21 5 -33 25 -17 25 -66 -1 -92 -40 -40 -140 -14 -140 37 0 19 47 16
58 -3 15 -27 47 -13 47 21 0 23 -5 31 -22 33 -29 4 -29 19 -1 41 13 11 19 24
15 34 -8 21 -36 22 -43 2 -6 -15 -35 -20 -47 -9 -8 9 19 61 35 67 29 12 69 6
88 -13z m181 9 c32 -16 43 -57 23 -86 -14 -23 -14 -26 2 -37 23 -17 22 -70 -1
-96 -28 -31 -97 -28 -124 6 -12 15 -21 31 -21 35 0 15 43 10 62 -8 15 -13 23
-15 36 -6 24 15 21 46 -5 58 -28 12 -29 25 -3 48 11 9 17 23 14 32 -8 19 -40
20 -48 0 -8 -21 -46 -19 -46 2 0 25 40 63 67 63 14 0 33 -5 44 -11z m-5221
-1844 l0 -85 -44 0 c-51 0 -76 19 -76 56 0 42 18 64 50 64 25 0 30 4 30 25 0
18 5 25 20 25 18 0 20 -7 20 -85z m1494 32 c8 -6 8 -10 -1 -14 -8 -2 -13 -22
-13 -44 0 -41 14 -53 25 -20 3 11 22 25 41 31 42 14 35 34 -9 24 -29 -6 -30
-5 -18 10 10 12 26 16 50 14 l36 -3 5 -57 5 -56 -85 1 -85 2 -3 45 c-2 24 -8
50 -13 56 -6 7 0 21 18 40 l28 29 3 -25 c2 -14 9 -29 16 -33z"/>
<path d="M11488 10400 c-58 -7 -121 -49 -162 -108 -25 -35 -31 -55 -34 -111
-3 -57 0 -75 22 -118 29 -59 81 -105 135 -122 60 -18 405 -15 469 4 103 31
162 111 162 220 0 69 -23 126 -66 168 -50 50 -81 61 -189 64 -230 7 -292 8
-337 3z m430 -203 c60 -54 -8 -153 -87 -126 -63 22 -64 109 -2 141 37 18 55
15 89 -15z m-315 -18 c25 -30 22 -75 -8 -104 -46 -47 -118 -23 -131 42 -5 27
-1 37 25 64 27 26 37 30 64 25 18 -3 40 -16 50 -27z"/>
<path d="M4060 6720 l0 -80 39 0 c53 0 71 20 71 80 0 60 -18 80 -71 80 l-39 0
0 -80z"/>
<path d="M2620 2100 c0 -5 -15 -10 -34 -10 -50 0 -69 -9 -55 -26 9 -12 94 -14
483 -14 259 0 477 4 485 9 23 15 2 31 -40 31 -21 0 -39 5 -39 10 0 6 -16 10
-35 10 -19 0 -35 -4 -35 -10 0 -6 -119 -10 -336 -10 -221 0 -333 3 -329 10 4
6 -8 10 -29 10 -20 0 -36 -4 -36 -10z"/>
<path d="M15785 2100 c4 -6 -11 -10 -39 -10 -46 0 -69 -16 -45 -31 8 -5 226
-9 485 -9 389 0 474 2 483 14 14 17 -5 26 -55 26 -19 0 -34 5 -34 10 0 6 -13
10 -30 10 -16 0 -30 -4 -30 -10 0 -6 -118 -10 -335 -10 -217 0 -335 4 -335 10
0 6 -16 10 -36 10 -21 0 -33 -4 -29 -10z"/>
</g>
</svg>
